<svg viewBox="0 0 118 119" fill="none" xmlns="http://www.w3.org/2000/svg">
<path d="M56.7168 0.00777167C63.9288 -0.234647 68.2347 5.24442 69.8555 9.40914C70.4976 11.0583 70.823 12.8433 70.8311 14.622C70.839 16.4041 70.5317 18.1757 69.9092 19.7949C68.3792 23.7724 64.8622 26.8573 59.3379 26.8574C56.7107 26.8573 54.1972 25.7974 52.3506 24.1201C50.5846 22.5147 49.4465 20.355 49.4463 18.0527C49.4463 17.6681 49.4662 17.3228 49.5059 17.0195C49.7587 15.0787 50.7167 13.3147 52.126 12.0341C53.5183 10.769 55.3595 9.98535 57.3984 9.98531C57.762 9.98532 58.0993 10.0035 58.4043 10.04L58.4551 10.0478C60.4995 10.3141 61.8842 11.6065 62.4951 13.124C62.7534 13.7664 62.8773 14.4429 62.8555 15.0927C62.8356 15.6983 62.6854 16.2802 62.4014 16.7812C61.8325 17.7827 60.634 18.5001 58.7129 18.499C57.6149 18.4991 56.7248 19.3896 56.7246 20.4873C56.7247 21.5853 57.6149 22.4764 58.7129 22.4765C62.2769 22.4788 64.6278 20.9203 65.8633 18.7461C66.4721 17.6742 66.7903 16.4603 66.832 15.2177C66.8723 14.0191 66.6544 12.7904 66.1924 11.6425C65.0896 8.90494 62.6127 6.57842 58.9697 6.10347L58.9062 6.09566C58.3614 6.02702 57.858 5.99314 57.3984 5.99312C54.3249 5.99317 51.5469 7.17692 49.4443 9.08687C47.3582 10.9823 45.9391 13.6058 45.5615 16.5048C45.4906 17.0484 45.4541 17.5669 45.4541 18.0527C45.4543 21.5353 47.1063 24.7379 49.6689 27.0673C52.2206 29.3854 55.6973 30.8505 59.3379 30.8505C66.7763 30.8505 71.534 26.6407 73.6211 21.2138C74.4232 19.1286 74.8174 16.8656 74.8076 14.6054C74.7975 12.3422 74.3831 10.0721 73.5664 7.97457C72.4427 5.08652 70.578 2.51532 67.9756 0.704061C96.0004 5.17229 117.426 29.5829 117.426 59.0302C117.426 76.6835 109.725 92.5269 97.5195 103.35C98.6311 106.61 100.385 110.189 103.134 112.969C106.799 116.675 108.483 117.942 109.256 118.326C109.673 118.345 109.905 118.351 109.912 118.352C109.912 118.359 109.894 118.643 109.256 118.326C106.729 118.213 97.3941 117.673 89.8789 115.614C87.428 114.943 85.2498 113.856 83.3828 112.639C75.8823 116.137 67.5244 118.091 58.7129 118.091C26.2868 118.091 6.86219e-05 91.6482 0 59.0302C0.000181194 27.0844 25.2154 1.06672 56.7168 0.00777167ZM47.1221 69.5312C46.5126 69.5312 45.9281 69.728 45.4971 70.0781C45.0661 70.4282 44.8234 70.9033 44.8232 71.3984V80.7363C44.8232 83.7082 46.2769 86.5587 48.8633 88.6601C51.4497 90.7615 54.9576 91.9423 58.6152 91.9423C62.2728 91.9423 65.7809 90.7615 68.3672 88.6601C70.9534 86.5587 72.4062 83.7081 72.4062 80.7363V71.3984C72.4061 70.9033 72.1642 70.4282 71.7334 70.0781C71.3024 69.7279 70.717 69.5312 70.1074 69.5312H47.1221ZM40.2256 44.247C37.7872 44.247 35.4479 45.2162 33.7236 46.9404C31.9996 48.6645 31.0314 51.0031 31.0312 53.4414C31.0312 54.051 31.2731 54.6363 31.7041 55.0673C32.1351 55.4982 32.7197 55.7401 33.3291 55.7402C33.9387 55.7402 34.524 55.4983 34.9551 55.0673C35.386 54.6363 35.6279 54.0509 35.6279 53.4414C35.628 52.2224 36.1127 51.0534 36.9746 50.1914C37.8367 49.3293 39.0064 48.8447 40.2256 48.8447C41.4446 48.8448 42.6136 49.3294 43.4756 50.1914C44.3375 51.0534 44.8222 52.2223 44.8223 53.4414C44.8223 54.051 45.0641 54.6363 45.4951 55.0673C45.9262 55.4984 46.5115 55.7402 47.1211 55.7402C47.7305 55.7401 48.3151 55.4982 48.7461 55.0673C49.1771 54.6363 49.4189 54.0509 49.4189 53.4414C49.4188 51.0031 48.4507 48.6645 46.7266 46.9404C45.0024 45.2163 42.6638 44.2472 40.2256 44.247ZM77.0029 44.247C74.5645 44.247 72.2262 45.2162 70.502 46.9404C68.7778 48.6646 67.8086 51.003 67.8086 53.4414C67.8086 54.0508 68.0506 54.6354 68.4814 55.0664C68.9125 55.4974 69.4978 55.7402 70.1074 55.7402C70.7169 55.7401 71.3014 55.4974 71.7324 55.0664C72.1633 54.6353 72.4062 54.0509 72.4062 53.4414C72.4063 52.2222 72.8899 51.0525 73.752 50.1904C74.6141 49.3284 75.7838 48.8437 77.0029 48.8437C78.2221 48.8437 79.3918 49.3283 80.2539 50.1904C81.116 51.0525 81.5996 52.2222 81.5996 53.4414C81.5996 54.0509 81.8425 54.6353 82.2734 55.0664C82.7045 55.4974 83.2889 55.7401 83.8984 55.7402C84.508 55.7402 85.0934 55.4974 85.5244 55.0664C85.9552 54.6354 86.1972 54.0507 86.1973 53.4414C86.1972 51.003 85.2281 48.6646 83.5039 46.9404C81.7797 45.2162 79.4413 44.2471 77.0029 44.247Z" fill="currentColor"/>
</svg>
